<?xml version="1.0" encoding="UTF-8"?>
<svg version="1.1" xmlns="http://www.w3.org/2000/svg" width="500" height="500">
<path d="M0 0 C0 0.66 0 1.32 0 2 C0.72574219 2.2475 1.45148438 2.495 2.19921875 2.75 C10.59747345 6.49817504 18.13916717 15.33435241 23 23 C23.71484375 25.796875 23.71484375 25.796875 24 28 C24.66 28 25.32 28 26 28 C26.95062815 30.22428529 27.88514321 32.45351284 28.8125 34.6875 C29.20405273 35.59725586 29.20405273 35.59725586 29.60351562 36.52539062 C34.54010738 48.53166933 35.48522169 60.21122041 35.39111328 73.02685547 C35.37515204 75.60048496 35.39097612 78.17251422 35.41015625 80.74609375 C35.4315638 96.53647242 33.26112391 111.7083594 29.0625 126.9375 C28.80090088 127.90913086 28.53930176 128.88076172 28.26977539 129.88183594 C25.62921467 139.57283194 22.68859321 148.87267693 18.40625 157.97265625 C17.07072571 160.84774326 15.80888353 163.7441155 14.56030273 166.6574707 C8.82899642 179.98776776 2.39292204 192.72543607 -5.21484375 205.0859375 C-6.93996036 207.8083544 -6.93996036 207.8083544 -8 210 C-8.66 210 -9.32 210 -10 210 C-10.33 211.32 -10.66 212.64 -11 214 C-11.66 214 -12.32 214 -13 214 C-13.33 215.32 -13.66 216.64 -14 218 C-14.66 218 -15.32 218 -16 218 C-16.268125 218.556875 -16.53625 219.11375 -16.8125 219.6875 C-18.10899496 222.21225334 -19.42476323 224.63714484 -21 227 C-21.66 227 -22.32 227 -23 227 C-23.25523437 227.57975586 -23.51046875 228.15951172 -23.7734375 228.75683594 C-25.12584777 231.23015312 -26.63732524 232.89602109 -28.625 234.890625 C-29.33140625 235.59960938 -30.0378125 236.30859375 -30.765625 237.0390625 C-31.50296875 237.76867187 -32.2403125 238.49828125 -33 239.25 C-33.73734375 239.99507812 -34.4746875 240.74015625 -35.234375 241.5078125 C-35.94078125 242.21164062 -36.6471875 242.91546875 -37.375 243.640625 C-38.02210938 244.28547852 -38.66921875 244.93033203 -39.3359375 245.59472656 C-41 247 -41 247 -43 247 C-43.33 247.99 -43.66 248.98 -44 250 C-45.97321053 251.3726682 -47.97543152 252.70427617 -50 254 C-51.00744985 254.99249423 -52.00736127 255.99269252 -53 257 C-55.27323282 258.72307696 -57.55484252 260.4055892 -59.875 262.0625 C-60.48730469 262.50916016 -61.09960938 262.95582031 -61.73046875 263.41601562 C-65.04323346 265.78886315 -68.09934664 267.68742273 -72 269 C-69.18203282 265.00787983 -66.07409 262.49578927 -62.1640625 259.69140625 C-59.03942897 257.24922878 -56.37628979 254.42418078 -53.6640625 251.5390625 C-52 250 -52 250 -50 250 C-49.7525 249.43410156 -49.505 248.86820312 -49.25 248.28515625 C-47.79764463 245.63006909 -46.04815279 243.66260716 -44 241.4375 C-41.76639308 239.00270422 -39.83774888 236.75662332 -38 234 C-37.34 234 -36.68 234 -36 234 C-35.67 232.68 -35.34 231.36 -35 230 C-35.73863281 230.61746094 -36.47726562 231.23492187 -37.23828125 231.87109375 C-39.9357082 234.12440206 -42.63767279 236.37221157 -45.34082031 238.61865234 C-46.87338466 239.89458658 -48.4017298 241.17558406 -49.9296875 242.45703125 C-55.42191443 247.02351455 -60.99690219 251.14015695 -67 255 C-68.91767432 256.29017017 -70.83426977 257.58194487 -72.75 258.875 C-77.16814667 261.81664521 -81.61987873 264.69404646 -86.125 267.5 C-87.20007813 268.1703125 -88.27515625 268.840625 -89.3828125 269.53125 C-92 271 -92 271 -94 271 C-94 271.66 -94 272.32 -94 273 C-99.75 276 -99.75 276 -102 276 C-98.26324008 280.43672936 -94.66276276 284.50292793 -90 288 C-88.1875 289.625 -88.1875 289.625 -87 291 C-87 291.66 -87 292.32 -87 293 C-86.41734375 293.268125 -85.8346875 293.53625 -85.234375 293.8125 C-82.97213399 295.01480991 -81.19423682 296.33825913 -79.25 298 C-78.63640625 298.515625 -78.0228125 299.03125 -77.390625 299.5625 C-76 301 -76 301 -76 303 C-75.40525879 303.27255615 -74.81051758 303.5451123 -74.19775391 303.82592773 C-72.05990011 304.96800049 -70.58388243 306.12292732 -68.8359375 307.78515625 C-68.27132813 308.31560547 -67.70671875 308.84605469 -67.125 309.39257812 C-66.25875 310.21918945 -66.25875 310.21918945 -65.375 311.0625 C-61.50673691 314.96570729 -61.50673691 314.96570729 -57 318 C-57 318.66 -57 319.32 -57 320 C-56.4121875 320.268125 -55.824375 320.53625 -55.21875 320.8125 C-52.97637872 322.01264238 -51.37442696 323.28999645 -49.5 325 C-45.95122294 328.17451808 -42.34344763 331.26292625 -38.6875 334.3125 C-37.68074219 335.15425781 -36.67398437 335.99601562 -35.63671875 336.86328125 C-33.00376217 339.06458322 -33.00376217 339.06458322 -30 341 C-30 341.66 -30 342.32 -30 343 C-29.1646875 343.4021875 -29.1646875 343.4021875 -28.3125 343.8125 C-23.40657982 346.33175631 -19.86224744 349.03336749 -16 353 C-15.34 353.33 -14.68 353.66 -14 354 C-14 354.66 -14 355.32 -14 356 C-13.13375 356.4021875 -13.13375 356.4021875 -12.25 356.8125 C-9.94449957 358.02929189 -7.97943808 359.30333879 -6 361 C-6 361.66 -6 362.32 -6 363 C-28.18385486 363.59362149 -50.03118979 361.44810077 -72 358.5 C-72.82322754 358.39389404 -73.64645508 358.28778809 -74.49462891 358.1784668 C-81.03517439 357.23396628 -86.9476863 355.75796596 -91.5 350.625 C-94.72779737 347.17910821 -98.12199439 344.68477311 -102 342 C-103.703125 340.484375 -103.703125 340.484375 -105 339 C-105 338.34 -105 337.68 -105 337 C-105.86625 336.5978125 -105.86625 336.5978125 -106.75 336.1875 C-109.05550043 334.97070811 -111.02056192 333.69666121 -113 332 C-113 331.34 -113 330.68 -113 330 C-113.54140625 329.77699219 -114.0828125 329.55398438 -114.640625 329.32421875 C-117.74982421 327.57915496 -120.17825482 325.24663354 -122.75 322.8125 C-123.81977835 321.81713394 -124.8900916 320.82234246 -125.9609375 319.828125 C-126.48010742 319.34408203 -126.99927734 318.86003906 -127.53417969 318.36132812 C-134.7743954 311.52326154 -134.7743954 311.52326154 -143 306 C-145.31026274 306.11443256 -145.31026274 306.11443256 -147 307 C-147 307.66 -147 308.32 -147 309 C-148.90625 310.33203125 -148.90625 310.33203125 -151.5 311.8125 C-154.63391586 313.62456867 -157.72411329 315.45093959 -160.75 317.4375 C-182.4744374 331.0753762 -207.81169622 339.89000656 -232.2734375 347.17578125 C-235.20254245 348.06122701 -238.09868095 349.02772886 -241 350 C-248.09852906 352.24683876 -255.28094254 354.15894842 -262.484375 356.03515625 C-264.75704761 356.65887862 -267.0132229 357.34791389 -269.2421875 358.11328125 C-272.29528555 359.09494309 -274.813016 359.15176114 -278 359 C-275.37813747 356.37813747 -272.53074227 355.81636646 -269.0625 354.8125 C-255.70372982 350.78661129 -242.58270879 346.0479389 -230 340 C-227.71096435 338.91111846 -225.41919666 337.82796517 -223.125 336.75 C-222.07570312 336.24984375 -221.02640625 335.7496875 -219.9453125 335.234375 C-217.26093641 334.10935796 -214.86587467 333.4441577 -212 333 C-212 332.34 -212 331.68 -212 331 C-207.38 328.69 -202.76 326.38 -198 324 C-201.12602253 325.08045051 -204.25080521 326.16428692 -207.375 327.25 C-208.68017578 327.70052734 -208.68017578 327.70052734 -210.01171875 328.16015625 C-214.37965886 329.68084651 -218.70168306 331.26037941 -222.984375 333.0078125 C-228.20881293 335.12171147 -233.50694679 336.91257987 -238.875 338.625 C-240.44906616 339.12725098 -240.44906616 339.12725098 -242.05493164 339.63964844 C-251.79569604 342.69989575 -261.60448956 345.50325569 -271.4375 348.25 C-272.17828796 348.4582843 -272.91907593 348.6665686 -273.68231201 348.88116455 C-288.17116939 352.94344225 -302.79249433 356.25340126 -317.5625 359.125 C-319.16816104 359.43912286 -320.7736316 359.75422099 -322.37890625 360.0703125 C-323.14090332 360.22016602 -323.90290039 360.37001953 -324.68798828 360.52441406 C-327.7973974 361.16402641 -330.88548107 361.88840268 -333.97241211 362.62841797 C-336 363 -336 363 -340 363 C-340 362.34 -340 361.68 -340 361 C-338.45892578 360.43732422 -338.45892578 360.43732422 -336.88671875 359.86328125 C-329.85784967 357.27558078 -322.95720319 354.60410924 -316.17578125 351.4140625 C-311.81602208 349.47281672 -307.37768431 347.74772782 -302.9375 346 C-296.9267383 343.62540526 -291.04196627 341.1993035 -285.3125 338.1953125 C-282.59905539 336.79275498 -279.84012032 335.5207613 -277.0625 334.25 C-271.33408297 331.62504518 -265.63181287 328.94813172 -259.9375 326.25 C-259.11580322 325.86102539 -258.29410645 325.47205078 -257.44750977 325.07128906 C-253.15101137 323.05136944 -253.15101137 323.05136944 -248.93188477 320.87792969 C-247 320 -247 320 -244 320 C-244 319.34 -244 318.68 -244 318 C-243.49774902 317.76925781 -242.99549805 317.53851563 -242.47802734 317.30078125 C-231.67203286 312.31529394 -221.26045895 307.02496209 -211 301 C-206.01803151 298.21067277 -200.99016478 295.51141396 -195.92578125 292.875 C-183.52858692 286.64360295 -183.52858692 286.64360295 -172 279 C-172 278.34 -172 277.68 -172 277 C-172.99 276.67 -173.98 276.34 -175 276 C-175 275.34 -175 274.68 -175 274 C-175.55171875 273.7628125 -176.1034375 273.525625 -176.671875 273.28125 C-179.56774711 271.68754857 -181.79512037 269.71082727 -184.25 267.5 C-185.14203125 266.7059375 -186.0340625 265.911875 -186.953125 265.09375 C-189 263 -189 263 -189 261 C-189.763125 260.731875 -190.52625 260.46375 -191.3125 260.1875 C-193.90483979 259.04204753 -195.30075537 258.23584819 -197 256 C-197 255.01 -197 254.02 -197 253 C-196.410979 252.80889648 -195.82195801 252.61779297 -195.21508789 252.42089844 C-192.49591832 251.53555025 -189.77922486 250.64282038 -187.0625 249.75 C-186.13630859 249.44964844 -185.21011719 249.14929688 -184.25585938 248.83984375 C-178.98678383 247.10197322 -173.90703836 245.18257299 -168.87280273 242.84692383 C-167 242 -167 242 -164 240.9375 C-163.34 240.628125 -162.68 240.31875 -162 240 C-161.67 239.01 -161.34 238.02 -161 237 C-159.37667033 235.61423077 -157.71275535 234.27358732 -156 233 C-169.3010475 233 -182.6034992 237.44040525 -193.01171875 245.64453125 C-195 247 -195 247 -198 247 C-198 247.66 -198 248.32 -198 249 C-208.91576734 254.20120102 -219.87041471 259.27163325 -231 264 C-232.7634375 264.75410156 -232.7634375 264.75410156 -234.5625 265.5234375 C-256.25152595 274.51296799 -279.20761174 280.51828637 -302 286 C-301.0821875 285.98839844 -300.164375 285.97679687 -299.21875 285.96484375 C-292.70996973 285.91698507 -286.43129355 285.97099303 -280 287 C-285.17764633 289.94288957 -290.93271934 290.21217552 -296.75 291 C-298.66848755 291.26055176 -298.66848755 291.26055176 -300.62573242 291.52636719 C-323.30021092 294.50324085 -346.14315976 295.42790744 -369 295 C-369 294.34 -369 293.68 -369 293 C-366.265625 292.54427083 -363.53125 292.08854167 -360.796875 291.6328125 C-359.54390625 291.42398437 -358.2909375 291.21515625 -357 291 C-356.11272217 290.86722656 -355.22544434 290.73445313 -354.3112793 290.59765625 C-347.12652708 289.48538954 -340.27158714 287.84139727 -333.3125 285.75 C-332.27448242 285.4420752 -331.23646484 285.13415039 -330.16699219 284.81689453 C-318.3000267 281.25387387 -306.75068959 277.1733063 -295.32714844 272.37792969 C-289.33514459 269.89635721 -283.29023763 267.54858407 -277.25 265.1875 C-275.95568301 264.68045635 -274.66141194 264.17329547 -273.3671875 263.66601562 C-270.24523846 262.44286395 -267.12283805 261.22087975 -264 260 C-264.98170166 260.14099121 -265.96340332 260.28198242 -266.97485352 260.42724609 C-270.69300751 260.9610392 -274.41130359 261.4938371 -278.12963867 262.02636719 C-279.72472837 262.25494602 -281.31978178 262.4837782 -282.91479492 262.71289062 C-287.54950865 263.3785377 -292.18485388 264.03943986 -296.82131958 264.69277954 C-298.8491238 264.97872462 -300.87660195 265.26697952 -302.90405273 265.55541992 C-312.229289 266.84687228 -321.55880251 267.77799511 -330.9375 268.5625 C-332.08824509 268.65913437 -332.08824509 268.65913437 -333.26223755 268.75772095 C-361.18662085 271.08321892 -388.99460341 271.1214863 -417 271 C-417 270.34 -417 269.68 -417 269 C-411.08043444 267.86891161 -405.15644006 266.85401732 -399.19140625 265.9921875 C-379.18971583 263.08419168 -359.58614888 259.04832883 -339.91064453 254.44525146 C-337.16128017 253.80454699 -334.4086611 253.17824834 -331.65625 252.55078125 C-322.41220619 250.42256212 -313.29970684 248.0149062 -304.22265625 245.26171875 C-298.83664169 243.63303284 -293.40667562 242.16303836 -287.97387695 240.69921875 C-284.21042667 239.67153862 -280.58442808 238.54525541 -277 237 C-277.55945313 237.0721875 -278.11890625 237.144375 -278.6953125 237.21875 C-283.53952572 237.77949494 -288.24839217 238.02714353 -293.125 237.9375 C-303.78838638 237.84406397 -314.39029828 239.03845965 -325 240 C-333.69809564 240.77753114 -342.26445672 241.12867412 -351 241 C-351 240.67 -351 240.34 -351 240 C-349.94425781 239.84180786 -349.94425781 239.84180786 -348.8671875 239.68041992 C-326.95470649 236.59891848 -326.95470649 236.59891848 -305.31640625 232.05859375 C-299.94668786 230.69301882 -294.50582339 229.71072403 -289.0625 228.6875 C-278.78367969 226.73789111 -268.52127518 224.71998481 -258.27368164 222.61206055 C-252.8570635 221.51235157 -247.49512161 220.60041709 -242 220 C-243 223 -243 223 -245 224.0625 C-245.66 224.371875 -246.32 224.68125 -247 225 C-247.33 225.66 -247.66 226.32 -248 227 C-241.22390242 224.65392366 -234.69035575 222.03758696 -228.21484375 218.953125 C-226 218 -226 218 -224 218 C-224 217.34 -224 216.68 -224 216 C-224.9075 216.37125 -225.815 216.7425 -226.75 217.125 C-230 218 -230 218 -232.375 217.125 C-233.179375 216.568125 -233.179375 216.568125 -234 216 C-234 215.34 -234 214.68 -234 214 C-234.56203125 213.731875 -235.1240625 213.46375 -235.703125 213.1875 C-238.15550646 211.9196021 -240.43927683 210.51027658 -242.75 209 C-243.94882812 208.2265625 -243.94882812 208.2265625 -245.171875 207.4375 C-245.77515625 206.963125 -246.3784375 206.48875 -247 206 C-247 205.34 -247 204.68 -247 204 C-250.06454953 202.18755762 -251.81280509 201.83100597 -255.3125 202.375 C-262.20030575 203.25275636 -269.07023825 203.08315714 -276 203 C-274.65095258 200.30190516 -273.36252468 200.15051617 -270.58203125 199.046875 C-269.2050708 198.49362549 -269.2050708 198.49362549 -267.80029297 197.92919922 C-266.32133545 197.34549561 -266.32133545 197.34549561 -264.8125 196.75 C-262.7901154 195.93551429 -260.76797961 195.1204105 -258.74609375 194.3046875 C-257.75851074 193.90862305 -256.77092773 193.51255859 -255.75341797 193.10449219 C-246.76930091 189.50064881 -238.20708785 185.73156839 -229.91015625 180.703125 C-227.09770344 179.05717946 -224.25648422 177.64388641 -221.3125 176.25 C-207.58136614 169.49198764 -195.18996522 160.1735255 -183 151 C-187.45144612 152.43616993 -191.78600507 154.0667685 -196.125 155.8125 C-197.32382813 156.29332031 -198.52265625 156.77414063 -199.7578125 157.26953125 C-202.07880715 158.20576417 -204.38486238 159.16575132 -206.68359375 160.15576172 C-214.24778602 163.39308573 -221.89098326 166.070365 -229.75 168.5 C-231.00409668 168.88800781 -232.25819336 169.27601563 -233.55029297 169.67578125 C-248.75855201 174.30660988 -264.12412812 177.83564172 -280 179 C-277.18431433 176.18431433 -273.87873663 175.76924169 -270.125 174.8125 C-255.25092675 170.84014633 -240.79513466 165.86925994 -227 159 C-226.00613281 158.51015625 -225.01226562 158.0203125 -223.98828125 157.515625 C-221.65242585 156.35584184 -219.32306772 155.18513161 -217 154 C-219.20845435 154.29074889 -221.41675489 154.58266613 -223.625 154.875 C-224.85476562 155.03742188 -226.08453125 155.19984375 -227.3515625 155.3671875 C-229.9662326 155.71525296 -232.57512305 156.08617364 -235.18383789 156.47705078 C-243.1749635 157.66581327 -251.12810362 158.56441641 -259.1875 159.125 C-260.39623779 159.20991699 -261.60497559 159.29483398 -262.8503418 159.38232422 C-278.55182417 160.36931426 -294.27575914 160.18129945 -310 160 C-310 159.34 -310 158.68 -310 158 C-306.907574 157.28636323 -303.81513896 156.57276601 -300.72265625 155.859375 C-298.33445802 155.30805956 -295.94642244 154.75603879 -293.55859375 154.203125 C-292.46675781 153.95046875 -291.37492187 153.6978125 -290.25 153.4375 C-289.17621094 153.18742188 -288.10242188 152.93734375 -286.99609375 152.6796875 C-285.18047427 152.2677999 -283.36086679 151.87237594 -281.53515625 151.5078125 C-276.58573638 150.51618884 -272.16762518 148.94716917 -267.515625 146.9921875 C-265.13034256 146.0514084 -262.7868581 145.35115234 -260.3125 144.6875 C-254.42883624 142.99849873 -249.0193075 140.32667068 -243.51953125 137.6875 C-240.90215083 136.43255178 -238.285733 135.21978969 -235.625 134.0625 C-229.03417891 131.15954856 -222.53183481 128.0617989 -216.03027344 124.96533203 C-214.26510875 124.12605099 -212.49615963 123.29473835 -210.7265625 122.46484375 C-201.76541497 118.15244166 -192.93581965 113.02895797 -185.21484375 106.7265625 C-183 105 -183 105 -181 105 C-181 104.34 -181 103.68 -181 103 C-179.25692106 101.46387524 -177.45450904 99.99459641 -175.625 98.5625 C-172.50197096 96.11330281 -170.20726199 94.31089299 -168 91 C-167.34 91 -166.68 91 -166 91 C-165.6596875 89.9171875 -165.6596875 89.9171875 -165.3125 88.8125 C-163.7381416 85.43887487 -161.62949185 83.62949185 -159 81 C-157.62598987 78.89580164 -156.35345558 76.75967255 -155.11328125 74.57421875 C-154.56220703 73.79498047 -154.56220703 73.79498047 -154 73 C-153.34 73 -152.68 73 -152 73 C-151.60494263 71.93483154 -151.60494263 71.93483154 -151.2019043 70.84814453 C-149.94051044 67.85902799 -148.44417747 65.20766604 -146.76953125 62.4296875 C-146.13080078 61.3675 -145.49207031 60.3053125 -144.83398438 59.2109375 C-144.16689453 58.11007813 -143.49980469 57.00921875 -142.8125 55.875 C-142.16474609 54.79734375 -141.51699219 53.7196875 -140.84960938 52.609375 C-135.49209724 43.72478944 -130.06742763 34.86387016 -124.1875 26.3125 C-123.62417969 25.48363281 -123.06085938 24.65476563 -122.48046875 23.80078125 C-121.99191406 23.20652344 -121.50335938 22.61226562 -121 22 C-120.34 22 -119.68 22 -119 22 C-118.67515625 21.18982422 -118.67515625 21.18982422 -118.34375 20.36328125 C-109.35461182 4.55389578 -90.37514899 -4.43571835 -73.8125 -9.8125 C-47.78621476 -16.82790467 -23.47203873 -12.45130723 0 0 Z M-58.7109375 40.07421875 C-63.76164048 47.97141618 -63.65461488 55.90812672 -63 65 C-61.26452261 70.96098757 -56.87081597 74.24561246 -51.75 77.375 C-46.8251537 78.49428325 -42.29044089 77.41191562 -38.00390625 74.76953125 C-32.88078804 70.66001922 -29.22352623 65.55625378 -28 59 C-27.85661194 56.71130596 -27.77958697 54.41799044 -27.75 52.125 C-27.71132813 50.33449219 -27.71132813 50.33449219 -27.671875 48.5078125 C-28.27578462 42.05173103 -31.28482618 38.24365644 -36 34 C-43.94735969 28.70176021 -53.11874895 33.2946477 -58.7109375 40.07421875 Z M1 54 C0.278125 54.7425 -0.44375 55.485 -1.1875 56.25 C-4.92529141 61.9211318 -5.82062057 69.30681348 -5 76 C-3.6756192 82.06318083 -1.67346172 86.8458118 3 91 C7.38262211 92.71614255 10.33632328 92.25872143 14.6875 90.5625 C20.63046857 86.55981569 23.04435482 80.9849174 24.4375 74.125 C25.39754085 66.88354898 24.630146 60.98860101 21.125 54.5625 C17.79545326 50.39067399 17.79545326 50.39067399 12.921875 48.6484375 C7.13696117 48.28448597 4.67241473 49.27832392 1 54 Z M-150 173 C-152.07877214 173.94297925 -154.11350072 174.98343831 -156.125 176.0625 C-166.27379369 181.34711045 -176.9366316 185.26970564 -187.9375 188.41015625 C-190.65452992 189.18718564 -193.3266061 190.08541788 -196 191 C-196 191.66 -196 192.32 -196 193 C-196.57363281 193.2784375 -197.14726562 193.556875 -197.73828125 193.84375 C-199.9543456 194.97666027 -202.06821851 196.19582678 -204.1875 197.5 C-205.22970703 198.13421875 -205.22970703 198.13421875 -206.29296875 198.78125 C-208.14697257 199.90387926 -208.14697257 199.90387926 -209 202 C-210.32 202.33 -211.64 202.66 -213 203 C-213.33 205.97 -213.66 208.94 -214 212 C-203.54623558 208.59438873 -203.54623558 208.59438873 -193.96875 203.3046875 C-191.65610197 201.77209932 -189.26211809 200.4897395 -186.8125 199.1875 C-173.17641209 191.79197145 -160.62677137 182.97399302 -148 174 C-148.99 173.505 -148.99 173.505 -150 173 Z M-54 178 C-54 178.66 -54 179.32 -54 180 C-54.99 180.33 -55.98 180.66 -57 181 C-57 181.66 -57 182.32 -57 183 C-57.53625 183.23976563 -58.0725 183.47953125 -58.625 183.7265625 C-61.64427273 185.34544887 -64.26294665 187.31536736 -67 189.375 C-68.03125 190.14585937 -69.0625 190.91671875 -70.125 191.7109375 C-72.95316287 193.87152789 -72.95316287 193.87152789 -75.078125 196.09375 C-77.79841259 198.79192143 -80.93268254 200.61615397 -84.171875 202.6328125 C-84.77515625 203.08398438 -85.3784375 203.53515625 -86 204 C-86 204.66 -86 205.32 -86 206 C-86.78375 206.185625 -87.5675 206.37125 -88.375 206.5625 C-91.61579887 207.84764438 -93.66642022 209.09410847 -96.4375 211.125 C-107.33568938 218.9886636 -119.80584443 224.46506414 -132 230 C-132.495 229.505 -132.495 229.505 -133 229 C-125.88610478 222.29612756 -125.88610478 222.29612756 -121 222 C-121.33 220.68 -121.66 219.36 -122 218 C-125.98553482 216.89290699 -127.41654193 217.13361559 -131 219 C-133.24273335 219.81202415 -135.49367523 220.60154369 -137.75 221.375 C-143.08035547 223.25008329 -148.03254077 225.31757202 -153 228 C-151.98700625 231.03898126 -151.5048111 232.12139167 -149 234 C-146.37429296 234.25069913 -146.37429296 234.25069913 -144 234 C-144 234.66 -144 235.32 -144 236 C-144.99 236.495 -144.99 236.495 -146 237 C-144.68 237.33 -143.36 237.66 -142 238 C-142 238.99 -142 239.98 -142 241 C-140.36739286 242.37482707 -138.69774938 243.70647667 -137 245 C-136.34 245.99 -135.68 246.98 -135 248 C-134.34 248 -133.68 248 -133 248 C-133 248.66 -133 249.32 -133 250 C-130.07120629 249.37240135 -127.63904371 248.41377341 -125 247 C-125 246.34 -125 245.68 -125 245 C-123.02 244.505 -123.02 244.505 -121 244 C-121 243.34 -121 242.68 -121 242 C-120.0925 241.731875 -119.185 241.46375 -118.25 241.1875 C-115.27008166 240.09868368 -113.31409641 239.13608899 -111 237 C-111 236.34 -111 235.68 -111 235 C-110.34 234.79375 -109.68 234.5875 -109 234.375 C-104.92819814 232.50875748 -101.31203002 230.02438473 -98 227 C-98 226.34 -98 225.68 -98 225 C-97.4225 224.72800781 -96.845 224.45601562 -96.25 224.17578125 C-90.42103986 221.12974479 -86.02228197 217.15354877 -82 212 C-79.97174684 210.1998235 -77.90476854 208.46182033 -75.8046875 206.74609375 C-73.93947694 204.94144197 -73.00736637 203.37302283 -72 201 C-71.34 201 -70.68 201 -70 201 C-68.56299778 199.657446 -68.56299778 199.657446 -67.0625 197.8125 C-66.4540625 197.09449219 -65.845625 196.37648438 -65.21875 195.63671875 C-64.4865625 194.76660156 -63.754375 193.89648438 -63 193 C-62.03243015 191.88048935 -61.06360208 190.76206535 -60.09375 189.64453125 C-59.08299843 188.47164269 -58.07258179 187.29846541 -57.0625 186.125 C-56.31722046 185.26805542 -56.31722046 185.26805542 -55.55688477 184.39379883 C-52.86507679 181.59237297 -52.86507679 181.59237297 -52 178 C-52.66 178 -53.32 178 -54 178 Z M-216 211 C-215 213 -215 213 -215 213 Z " fill="#C6C6C7" transform="translate(417,84)"/>
<path d="M0 0 C0 0.99 0 1.98 0 3 C0.99 3.66 1.98 4.32 3 5 C3 5.66 3 6.32 3 7 C4.65 7 6.3 7 8 7 C7.67 7.99 7.34 8.98 7 10 C7.99 10.33 8.98 10.66 10 11 C10 11.99 10 12.98 10 14 C10.99 14.33 11.98 14.66 13 15 C13 15.66 13 16.32 13 17 C13.99 17.33 14.98 17.66 16 18 C17.6875 19.4375 17.6875 19.4375 19 21 C19 21.66 19 22.32 19 23 C19.94875 22.505 20.8975 22.01 21.875 21.5 C25 20 25 20 27 20 C27 19.34 27 18.68 27 18 C28.98 17.505 28.98 17.505 31 17 C31 16.34 31 15.68 31 15 C32.98 14.34 34.96 13.68 37 13 C35.55746343 16.36591866 33.66735273 18.51047079 31 21 C31.33 21.66 31.66 22.32 32 23 C29.69 24.32 27.38 25.64 25 27 C25.04768403 28.87880872 25.04768403 28.87880872 26 31 C27.98600337 32.3540932 29.98817543 33.68457624 32 35 C32.91121128 36.01014279 33.78727449 37.05312761 34.625 38.125 C36.81305187 40.77369436 37.9609711 41.69755904 41 43 C41.33 43.66 41.66 44.32 42 45 C43.19625 45.53625 44.3925 46.0725 45.625 46.625 C49.95031929 48.68320203 52.40995531 51.43144285 55.40234375 55.10546875 C57.36009144 57.4270033 59.57634934 59.182262 62 61 C63.8125 62.625 63.8125 62.625 65 64 C65 64.66 65 65.32 65 66 C65.58265625 66.268125 66.1653125 66.53625 66.765625 66.8125 C69.02786601 68.01480991 70.80576318 69.33825913 72.75 71 C73.36359375 71.515625 73.9771875 72.03125 74.609375 72.5625 C76 74 76 74 76 76 C76.59474121 76.27255615 77.18948242 76.5451123 77.80224609 76.82592773 C79.94009989 77.96800049 81.41611757 79.12292732 83.1640625 80.78515625 C83.72867187 81.31560547 84.29328125 81.84605469 84.875 82.39257812 C85.74125 83.21918945 85.74125 83.21918945 86.625 84.0625 C90.49326309 87.96570729 90.49326309 87.96570729 95 91 C95 91.66 95 92.32 95 93 C95.5878125 93.268125 96.175625 93.53625 96.78125 93.8125 C99.02362128 95.01264238 100.62557304 96.28999645 102.5 98 C106.04877706 101.17451808 109.65655237 104.26292625 113.3125 107.3125 C114.31925781 108.15425781 115.32601563 108.99601562 116.36328125 109.86328125 C118.99623783 112.06458322 118.99623783 112.06458322 122 114 C122 114.66 122 115.32 122 116 C122.8353125 116.4021875 122.8353125 116.4021875 123.6875 116.8125 C128.59342018 119.33175631 132.13775256 122.03336749 136 126 C136.66 126.33 137.32 126.66 138 127 C138 127.66 138 128.32 138 129 C138.86625 129.4021875 138.86625 129.4021875 139.75 129.8125 C142.05550043 131.02929189 144.02056192 132.30333879 146 134 C146 134.66 146 135.32 146 136 C123.81614514 136.59362149 101.96881021 134.44810077 80 131.5 C79.17677246 131.39389404 78.35354492 131.28778809 77.50537109 131.1784668 C70.96482561 130.23396628 65.0523137 128.75796596 60.5 123.625 C57.27220263 120.17910821 53.87800561 117.68477311 50 115 C48.296875 113.484375 48.296875 113.484375 47 112 C47 111.34 47 110.68 47 110 C46.4225 109.731875 45.845 109.46375 45.25 109.1875 C42.94449957 107.97070811 40.97943808 106.69666121 39 105 C39 104.34 39 103.68 39 103 C38.18789063 102.66548828 38.18789063 102.66548828 37.359375 102.32421875 C34.25017579 100.57915496 31.82174518 98.24663354 29.25 95.8125 C28.18022165 94.81713394 27.1099084 93.82234246 26.0390625 92.828125 C25.51989258 92.34408203 25.00072266 91.86003906 24.46582031 91.36132812 C17.2256046 84.52326154 17.2256046 84.52326154 9 79 C6.68973726 79.11443256 6.68973726 79.11443256 5 80 C5 80.66 5 81.32 5 82 C3.09375 83.33203125 3.09375 83.33203125 0.5 84.8125 C-2.63391586 86.62456867 -5.72411329 88.45093959 -8.75 90.4375 C-30.4744374 104.0753762 -55.81169622 112.89000656 -80.2734375 120.17578125 C-83.20254245 121.06122701 -86.09868095 122.02772886 -89 123 C-96.09852906 125.24683876 -103.28094254 127.15894842 -110.484375 129.03515625 C-112.75704761 129.65887862 -115.0132229 130.34791389 -117.2421875 131.11328125 C-120.29528555 132.09494309 -122.813016 132.15176114 -126 132 C-123.37813747 129.37813747 -120.53074227 128.81636646 -117.0625 127.8125 C-103.70372982 123.78661129 -90.58270879 119.0479389 -78 113 C-75.71096435 111.91111846 -73.41919666 110.82796517 -71.125 109.75 C-70.07570313 109.24984375 -69.02640625 108.7496875 -67.9453125 108.234375 C-65.26093641 107.10935796 -62.86587467 106.4441577 -60 106 C-60 105.34 -60 104.68 -60 104 C-55.38 101.69 -50.76 99.38 -46 97 C-49.12602253 98.08045051 -52.25080521 99.16428692 -55.375 100.25 C-56.68017578 100.70052734 -56.68017578 100.70052734 -58.01171875 101.16015625 C-62.37965886 102.68084651 -66.70168306 104.26037941 -70.984375 106.0078125 C-76.20881293 108.12171147 -81.50694679 109.91257987 -86.875 111.625 C-87.92437744 111.95983398 -88.97375488 112.29466797 -90.05493164 112.63964844 C-99.79569604 115.69989575 -109.60448956 118.50325569 -119.4375 121.25 C-120.54868195 121.56242645 -120.54868195 121.56242645 -121.68231201 121.88116455 C-136.17116939 125.94344225 -150.79249433 129.25340126 -165.5625 132.125 C-167.16816104 132.43912286 -168.7736316 132.75422099 -170.37890625 133.0703125 C-171.14090332 133.22016602 -171.90290039 133.37001953 -172.68798828 133.52441406 C-175.7973974 134.16402641 -178.88548107 134.88840268 -181.97241211 135.62841797 C-184 136 -184 136 -188 136 C-188 135.34 -188 134.68 -188 134 C-186.45892578 133.43732422 -186.45892578 133.43732422 -184.88671875 132.86328125 C-177.85784967 130.27558078 -170.95720319 127.60410924 -164.17578125 124.4140625 C-159.81602208 122.47281672 -155.37768431 120.74772782 -150.9375 119 C-144.9267383 116.62540526 -139.04196627 114.1993035 -133.3125 111.1953125 C-130.59905539 109.79275498 -127.84012032 108.5207613 -125.0625 107.25 C-119.33408297 104.62504518 -113.63181287 101.94813172 -107.9375 99.25 C-106.70495483 98.66653809 -106.70495483 98.66653809 -105.44750977 98.07128906 C-101.15101137 96.05136944 -101.15101137 96.05136944 -96.93188477 93.87792969 C-95 93 -95 93 -92 93 C-92 92.34 -92 91.68 -92 91 C-91.49774902 90.76925781 -90.99549805 90.53851563 -90.47802734 90.30078125 C-79.67203286 85.31529394 -69.26045895 80.02496209 -59 74 C-54.01803151 71.21067277 -48.99016478 68.51141396 -43.92578125 65.875 C-31.52858692 59.64360295 -31.52858692 59.64360295 -20 52 C-20 51.34 -20 50.68 -20 50 C-20.99 49.67 -21.98 49.34 -23 49 C-23 48.34 -23 47.68 -23 47 C-23.55171875 46.7628125 -24.1034375 46.525625 -24.671875 46.28125 C-27.56774711 44.68754857 -29.79512037 42.71082727 -32.25 40.5 C-33.58804688 39.30890625 -33.58804688 39.30890625 -34.953125 38.09375 C-37 36 -37 36 -37 34 C-37.763125 33.731875 -38.52625 33.46375 -39.3125 33.1875 C-41.90483979 32.04204753 -43.30075537 31.23584819 -45 29 C-45 28.01 -45 27.02 -45 26 C-44.410979 25.80889648 -43.82195801 25.61779297 -43.21508789 25.42089844 C-40.49591832 24.53555025 -37.77922486 23.64282038 -35.0625 22.75 C-34.13630859 22.44964844 -33.21011719 22.14929688 -32.25585938 21.83984375 C-26.98678383 20.10197322 -21.90703836 18.18257299 -16.87280273 15.84692383 C-15 15 -15 15 -12 13.9375 C-11.01 13.4734375 -11.01 13.4734375 -10 13 C-9.67 12.01 -9.34 11.02 -9 10 C-7.37667033 8.61423077 -5.71275535 7.27358732 -4 6 C-7.07115594 6 -9.84480455 6.38382119 -12.875 6.875 C-13.90367187 7.03742188 -14.93234375 7.19984375 -15.9921875 7.3671875 C-18.99689501 7.89587962 -18.99689501 7.89587962 -21.6328125 9.1328125 C-24.33604167 10.12310437 -25.31953273 9.80209079 -28 9 C-26.84242188 8.60167969 -25.68484375 8.20335937 -24.4921875 7.79296875 C-22.95305112 7.25802501 -21.41399273 6.72285685 -19.875 6.1875 C-19.11445313 5.92646484 -18.35390625 5.66542969 -17.5703125 5.39648438 C-14.12427274 4.19334118 -10.89746361 2.94873181 -7.625 1.3125 C-4.81417035 -0.09291483 -3.09640969 -0.27321262 0 0 Z " fill="#606063" transform="translate(265,311)"/>
<path d="M0 0 C-1.48059849 3.68522591 -3.45997735 5.35047863 -6.625 7.6875 C-21.62793616 19.41393286 -30.14765414 35.58265797 -35.1875 53.6875 C-43.38825619 82.93348893 -56.87288278 108.23307103 -78 130 C-78.88220215 130.92087402 -78.88220215 130.92087402 -79.78222656 131.86035156 C-81.65704806 133.81300685 -83.54467072 135.75230681 -85.4375 137.6875 C-86.02893799 138.30052979 -86.62037598 138.91355957 -87.22973633 139.54516602 C-88.07314575 140.39485962 -88.07314575 140.39485962 -88.93359375 141.26171875 C-89.42915771 141.76662842 -89.92472168 142.27153809 -90.43530273 142.79174805 C-92.25275409 144.19517554 -93.75939221 144.59253427 -96 145 C-96 145.66 -96 146.32 -96 147 C-99.08809695 148.76462683 -100.23312136 149 -104 149 C-106.49085012 149.97782502 -108.887845 151.00458809 -111.3125 152.125 C-112.77279195 152.77748836 -114.23374325 153.42850284 -115.6953125 154.078125 C-116.4265332 154.40490234 -117.15775391 154.73167969 -117.91113281 155.06835938 C-143.2884785 166.38672674 -171.19768881 174.96094027 -199 177 C-196.18431433 174.18431433 -192.87873663 173.76924169 -189.125 172.8125 C-174.25092675 168.84014633 -159.79513466 163.86925994 -146 157 C-145.00613281 156.51015625 -144.01226562 156.0203125 -142.98828125 155.515625 C-140.65242585 154.35584184 -138.32306772 153.18513161 -136 152 C-136.99 152.13277344 -137.98 152.26554688 -139 152.40234375 C-145.66349336 153.29440701 -152.32681287 154.18287505 -159 155 C-158.34 154.67 -157.68 154.34 -157 154 C-157 153.01 -157 152.02 -157 151 C-154.92446352 150.4465236 -153.15634036 150 -151 150 C-149.33449305 149.28381101 -147.66989274 148.56539742 -146.01123047 147.83349609 C-143.32176711 146.71892607 -140.5764624 145.87288011 -137.79785156 145.01049805 C-106.60451417 135.27024558 -81.3672729 116.71012522 -65.9140625 87.69921875 C-61.31504559 78.82921517 -57.01019113 69.80514551 -52.70849609 60.78808594 C-49.01871491 53.06446838 -45.22271468 45.4515126 -41 38 C-40.42894531 36.99066406 -39.85789062 35.98132813 -39.26953125 34.94140625 C-34.67158835 27.43430913 -29.07329968 21.30897997 -23 15 C-22.40445313 14.3296875 -21.80890625 13.659375 -21.1953125 12.96875 C-16.32212955 7.63491791 -7.43224182 0 0 0 Z " fill="#9B9B9D" transform="translate(336,86)"/>
<path d="M0 0 C1.30938947 3.9281684 0.07495278 6.16802433 -1.4375 9.8125 C-1.71045898 10.47685059 -1.98341797 11.14120117 -2.26464844 11.82568359 C-7.47932084 24.14994576 -14.57567767 34.66543166 -23 45 C-23.4429541 45.56332031 -23.8859082 46.12664062 -24.34228516 46.70703125 C-25.51621892 48.17541563 -26.75375087 49.59247157 -28 51 C-28.66 51 -29.32 51 -30 51 C-30 51.66 -30 52.32 -30 53 C-31.3984375 54.41015625 -31.3984375 54.41015625 -33.375 56.0625 C-37.65834459 59.68804524 -41.78372133 63.46199548 -45.8984375 67.27734375 C-48 69 -48 69 -50 69 C-50 69.66 -50 70.32 -50 71 C-50.99 71.33 -51.98 71.66 -53 72 C-53.66 72.66 -54.32 73.32 -55 74 C-56.6565382 74.69145023 -58.32555826 75.35310968 -60 76 C-61.65518207 76.80037428 -63.31009627 77.60134524 -64.96069336 78.41113281 C-72.290784 81.97905564 -79.63579914 84.63661329 -87.44921875 86.93359375 C-90.28569266 87.78547205 -93.00286843 88.7167054 -95.75 89.8125 C-99 91 -99 91 -103 91 C-103 91.66 -103 92.32 -103 93 C-105.1171875 94.7265625 -105.1171875 94.7265625 -107.875 96.625 C-108.77992188 97.25664062 -109.68484375 97.88828125 -110.6171875 98.5390625 C-113 100 -113 100 -115 100 C-115.495 101.485 -115.495 101.485 -116 103 C-117.32 103 -118.64 103 -120 103 C-120 105.64 -120 108.28 -120 111 C-118.02 110.67 -116.04 110.34 -114 110 C-116.3434663 113.51519945 -117.40650549 113.73147675 -121.3125 115 C-124.4027716 116.01182153 -126.95612792 116.97288592 -129.73046875 118.6875 C-130.47941406 119.120625 -131.22835937 119.55375 -132 120 C-132.99 119.505 -132.99 119.505 -134 119 C-133.01 118.67 -132.02 118.34 -131 118 C-131 117.34 -131 116.68 -131 116 C-131.9075 116.37125 -132.815 116.7425 -133.75 117.125 C-137 118 -137 118 -139.375 117.125 C-140.179375 116.568125 -140.179375 116.568125 -141 116 C-141 115.34 -141 114.68 -141 114 C-141.84304687 113.5978125 -141.84304687 113.5978125 -142.703125 113.1875 C-145.15550646 111.9196021 -147.43927683 110.51027658 -149.75 109 C-150.54921875 108.484375 -151.3484375 107.96875 -152.171875 107.4375 C-152.77515625 106.963125 -153.3784375 106.48875 -154 106 C-154 105.34 -154 104.68 -154 104 C-157.06454953 102.18755762 -158.81280509 101.83100597 -162.3125 102.375 C-169.20030575 103.25275636 -176.07023825 103.08315714 -183 103 C-181.42840514 99.85681028 -178.77138608 99.53911691 -175.5625 98.3125 C-174.38816406 97.85488281 -173.21382812 97.39726562 -172.00390625 96.92578125 C-169 96 -169 96 -167 97 C-167.495 97.99 -167.495 97.99 -168 99 C-167.13632813 98.73574219 -166.27265625 98.47148437 -165.3828125 98.19921875 C-161.78063345 97.16912193 -158.14832248 96.33619548 -154.4921875 95.51953125 C-140.13810334 92.3132503 -126.06815342 88.84040227 -112.22119141 83.80566406 C-110.17894393 83.06490602 -108.12921465 82.35285755 -106.07421875 81.6484375 C-69.19480871 68.55107692 -29.53025732 47.84966319 -8.89453125 13.171875 C-2.55045872 2.55045872 -2.55045872 2.55045872 0 0 Z M-123 111 C-122 113 -122 113 -122 113 Z " fill="#8F9092" transform="translate(324,184)"/>
<path d="M0 0 C-1.175625 0.556875 -2.35125 1.11375 -3.5625 1.6875 C-6.53200355 3.15645654 -9.16315716 4.76299287 -11.8125 6.75 C-15 9 -15 9 -18 9 C-18 9.66 -18 10.32 -18 11 C-28.91576734 16.20120102 -39.87041471 21.27163325 -51 26 C-52.175625 26.50273437 -53.35125 27.00546875 -54.5625 27.5234375 C-76.25152595 36.51296799 -99.20761174 42.51828637 -122 48 C-120.62328125 47.98259766 -120.62328125 47.98259766 -119.21875 47.96484375 C-112.70996973 47.91698507 -106.43129355 47.97099303 -100 49 C-105.17764633 51.94288957 -110.93271934 52.21217552 -116.75 53 C-118.0289917 53.17370117 -119.3079834 53.34740234 -120.62573242 53.52636719 C-143.30021092 56.50324085 -166.14315976 57.42790744 -189 57 C-189 56.34 -189 55.68 -189 55 C-186.265625 54.54427083 -183.53125 54.08854167 -180.796875 53.6328125 C-179.54390625 53.42398438 -178.2909375 53.21515625 -177 53 C-176.11272217 52.86722656 -175.22544434 52.73445313 -174.3112793 52.59765625 C-167.12652708 51.48538954 -160.27158714 49.84139727 -153.3125 47.75 C-152.27448242 47.4420752 -151.23646484 47.13415039 -150.16699219 46.81689453 C-138.3000267 43.25387387 -126.75068959 39.1733063 -115.32714844 34.37792969 C-109.33514459 31.89635721 -103.29023763 29.54858407 -97.25 27.1875 C-95.95568301 26.68045635 -94.66141194 26.17329547 -93.3671875 25.66601562 C-90.24523846 24.44286395 -87.12283805 23.22087975 -84 22 C-86.97 22 -89.94 22 -93 22 C-89.61291624 20.30645812 -87.55114244 19.58788769 -83.94140625 18.95703125 C-82.93086182 18.77422607 -81.92031738 18.5914209 -80.87915039 18.40307617 C-79.78465576 18.20818604 -78.69016113 18.0132959 -77.5625 17.8125 C-59.45017308 14.4427352 -16.95534128 -5.26200247 0 0 Z " fill="#313034" transform="translate(237,322)"/>
<path d="M0 0 C0 0.66 0 1.32 0 2 C-2.1171875 3.7265625 -2.1171875 3.7265625 -4.875 5.625 C-5.77992188 6.25664062 -6.68484375 6.88828125 -7.6171875 7.5390625 C-10 9 -10 9 -12 9 C-12.33 9.99 -12.66 10.98 -13 12 C-14.32 12 -15.64 12 -17 12 C-17 14.64 -17 17.28 -17 20 C-15.02 19.67 -13.04 19.34 -11 19 C-13.3434663 22.51519945 -14.40650549 22.73147675 -18.3125 24 C-21.4027716 25.01182153 -23.95612792 25.97288592 -26.73046875 27.6875 C-27.47941406 28.120625 -28.22835937 28.55375 -29 29 C-29.66 28.67 -30.32 28.34 -31 28 C-30.01 27.67 -29.02 27.34 -28 27 C-28 26.34 -28 25.68 -28 25 C-28.9075 25.37125 -29.815 25.7425 -30.75 26.125 C-34 27 -34 27 -36.375 26.125 C-36.91125 25.75375 -37.4475 25.3825 -38 25 C-38 24.34 -38 23.68 -38 23 C-38.56203125 22.731875 -39.1240625 22.46375 -39.703125 22.1875 C-42.15550646 20.9196021 -44.43927683 19.51027658 -46.75 18 C-47.54921875 17.484375 -48.3484375 16.96875 -49.171875 16.4375 C-49.77515625 15.963125 -50.3784375 15.48875 -51 15 C-51 14.34 -51 13.68 -51 13 C-52.32 12.34 -53.64 11.68 -55 11 C-51.256365 8.76404884 -47.24256405 8.12175931 -43.015625 7.34375 C-42.24120056 7.19595093 -41.46677612 7.04815186 -40.66888428 6.89587402 C-38.19694692 6.42497552 -35.7236044 5.96205427 -33.25 5.5 C-30.79093848 5.03669155 -28.33222715 4.5716438 -25.8739624 4.10412598 C-24.34733861 3.81420218 -22.82022476 3.52684213 -21.2925415 3.24255371 C-17.73187535 2.57023244 -14.22444227 1.81988995 -10.71777344 0.90429688 C-6.87894195 -0.02944569 -3.91196223 -0.16299843 0 0 Z M-20 20 C-19 22 -19 22 -19 22 Z " fill="#67676A" transform="translate(221,275)"/>
<path d="M0 0 C0.495 0.99 0.495 0.99 1 2 C-1.39509338 4.89932357 -3.31245243 5.50168276 -7 6 C-7 6.66 -7 7.32 -7 8 C-8.65483608 9.49877503 -10.37590512 10.92488473 -12.125 12.3125 C-13.12660156 13.11171875 -14.12820313 13.9109375 -15.16015625 14.734375 C-16.09730469 15.48203125 -17.03445313 16.2296875 -18 17 C-19.19127262 18.0164283 -20.37979626 19.03611371 -21.5625 20.0625 C-24 22 -24 22 -26 22 C-26.495 23.485 -26.495 23.485 -27 25 C-29.21484375 26.82421875 -29.21484375 26.82421875 -31.9375 28.6875 C-32.83339844 29.31011719 -33.72929687 29.93273437 -34.65234375 30.57421875 C-37 32 -37 32 -39 32 C-39 32.66 -39 33.32 -39 34 C-40.73046875 35.2265625 -40.73046875 35.2265625 -43.1875 36.625 C-47.21431796 38.94859804 -51.14642456 41.36950085 -55.0625 43.875 C-62.13523394 48.25135912 -69.55289236 51.72370641 -77.13232422 55.12744141 C-78.89274997 55.94989391 -80.60714186 56.86887882 -82.31640625 57.79296875 C-85 59 -85 59 -88 58 C-80.30263158 50.08881579 -80.30263158 50.08881579 -76.25 49.8125 C-75.13625 49.9053125 -75.13625 49.9053125 -74 50 C-74.33 49.01 -74.66 48.02 -75 47 C-78.9029974 45.91583405 -80.49844542 46.07979265 -84 48 C-85.32 48 -86.64 48 -88 48 C-88.33 48.66 -88.66 49.32 -89 50 C-91.06640625 50.6328125 -91.06640625 50.6328125 -93.5625 51.125 C-94.80193359 51.37636719 -94.80193359 51.37636719 -96.06640625 51.6328125 C-96.70449219 51.75398438 -97.34257812 51.87515625 -98 52 C-98 51.34 -98 50.68 -98 50 C-94.00999834 48.57499941 -90.19469571 47.59924224 -86 47 C-86 46.34 -86 45.68 -86 45 C-82.01939223 43.82923301 -78.08378283 42.74250597 -74 42 C-74 41.34 -74 40.68 -74 40 C-64.72580645 36.22434018 -64.72580645 36.22434018 -60.5625 34.9375 C-57.9895397 34.20009536 -57.9895397 34.20009536 -56.5 32.5 C-55 31 -55 31 -52.3671875 30.1484375 C-48.52479151 28.83792193 -45.17026192 27.07800552 -41.625 25.125 C-40.2973094 24.40414725 -38.96918826 23.68408688 -37.640625 22.96484375 C-37.01091797 22.62308105 -36.38121094 22.28131836 -35.73242188 21.92919922 C-33.63455208 20.8039889 -31.5122662 19.73573934 -29.375 18.6875 C-26.03546734 17.07612502 -26.03546734 17.07612502 -23.125 15.25 C-21 14 -21 14 -19 14 C-19 13.34 -19 12.68 -19 12 C-17.12890625 10.703125 -17.12890625 10.703125 -14.5625 9.25 C-9.56772522 6.35716325 -4.76919112 3.24857946 0 0 Z " fill="#262629" transform="translate(370,256)"/>
<path d="M0 0 C-2 2 -4 4 -6 6 C-5.01 6.33 -4.02 6.66 -3 7 C-19.50952262 13.27324295 -33.62139784 17.13068665 -51.4375 16.9375 C-61.99264092 16.8413256 -72.49828023 18.04824588 -83 19 C-91.69809564 19.77753114 -100.26445672 20.12867412 -109 20 C-109 19.67 -109 19.34 -109 19 C-108.29617187 18.89453857 -107.59234375 18.78907715 -106.8671875 18.68041992 C-84.95470649 15.59891848 -84.95470649 15.59891848 -63.31640625 11.05859375 C-57.94667685 9.69301602 -52.50580393 8.71087378 -47.0625 7.6875 C-36.727949 5.72479381 -26.40814015 3.69870422 -16.09790039 1.61206055 C-2.32958189 -1.16479094 -2.32958189 -1.16479094 0 0 Z " fill="#323135" transform="translate(175,305)"/>
<path d="M0 0 C1 3 1 3 -0.3359375 6.265625 C-1.00369505 7.59978802 -1.68428302 8.92757754 -2.375 10.25 C-2.73279541 10.9507666 -3.09059082 11.6515332 -3.45922852 12.37353516 C-6.77625223 18.77264762 -10.43809154 24.94976473 -14.21484375 31.0859375 C-15.93996036 33.8083544 -15.93996036 33.8083544 -17 36 C-17.66 36 -18.32 36 -19 36 C-19.33 37.32 -19.66 38.64 -20 40 C-20.66 40 -21.32 40 -22 40 C-22.33 41.32 -22.66 42.64 -23 44 C-23.66 44 -24.32 44 -25 44 C-25.268125 44.556875 -25.53625 45.11375 -25.8125 45.6875 C-27.10899496 48.21225334 -28.42476323 50.63714484 -30 53 C-30.66 53 -31.32 53 -32 53 C-32.38285156 53.86963379 -32.38285156 53.86963379 -32.7734375 54.75683594 C-34.12584777 57.23015312 -35.63732524 58.89602109 -37.625 60.890625 C-38.68460937 61.95410156 -38.68460937 61.95410156 -39.765625 63.0390625 C-40.50296875 63.76867187 -41.2403125 64.49828125 -42 65.25 C-42.73734375 65.99507813 -43.4746875 66.74015625 -44.234375 67.5078125 C-44.94078125 68.21164062 -45.6471875 68.91546875 -46.375 69.640625 C-47.02210938 70.28547852 -47.66921875 70.93033203 -48.3359375 71.59472656 C-50 73 -50 73 -52 73 C-52.33 73.99 -52.66 74.98 -53 76 C-54.97321053 77.3726682 -56.97543152 78.70427617 -59 80 C-60.00744985 80.99249423 -61.00736127 81.99269252 -62 83 C-64.27323282 84.72307696 -66.55484252 86.4055892 -68.875 88.0625 C-69.48730469 88.50916016 -70.09960938 88.95582031 -70.73046875 89.41601562 C-74.04323346 91.78886315 -77.09934664 93.68742273 -81 95 C-78.18203282 91.00787983 -75.07409 88.49578927 -71.1640625 85.69140625 C-68.03942897 83.24922878 -65.37628979 80.42418078 -62.6640625 77.5390625 C-61 76 -61 76 -59 76 C-58.7525 75.43410156 -58.505 74.86820312 -58.25 74.28515625 C-56.79764463 71.63006909 -55.04815279 69.66260716 -53 67.4375 C-50.76639308 65.00270422 -48.83774888 62.75662332 -47 60 C-46.34 60 -45.68 60 -45 60 C-44.57460938 59.12988281 -44.57460938 59.12988281 -44.140625 58.2421875 C-40.54000546 51.1642573 -35.91144876 45.74773149 -30.25 40.25 C-18.14304105 28.44920497 -8.56669802 14.54410467 0 0 Z " fill="#2E2D31" transform="translate(426,258)"/>
<path d="M0 0 C7.06758397 -0.71873735 7.06758397 -0.71873735 11 2.3125 C13.63545275 6.07743249 13.71078333 9.94801383 13.47265625 14.4296875 C13 17 13 17 11.0625 20.1875 C6.96708776 22.61131541 3.6524192 22.96526828 -1 22 C-3.50160818 20.12379387 -4.61945652 18.76108697 -6 16 C-6.16796875 13.9765625 -6.16796875 13.9765625 -6.1875 11.625 C-6.20167969 10.85414063 -6.21585937 10.08328125 -6.23046875 9.2890625 C-5.97388624 6.74063282 -5.37335899 5.15335034 -4 3 C-1.875 2.25 -1.875 2.25 0 2 C0 1.34 0 0.68 0 0 Z " fill="#252528" transform="translate(368,127)"/>
<path d="M0 0 C4.46558622 1.15489299 6.04261532 2.10305002 8.625 5.9375 C9.41643498 10.52782288 9.04584484 14.5627402 7.6875 19 C4.89766518 21.62075392 2.61231963 21.91568706 -1.1484375 22.1484375 C-4.50793181 21.83016962 -6.145715 20.37578047 -8.375 17.9375 C-10.09820188 14.49109623 -9.7473512 10.7132718 -9.375 6.9375 C-7.31044559 2.3168306 -5.32261825 -0.098567 0 0 Z " fill="#242326" transform="translate(427.375,143.0625)"/>
<path d="M0 0 C-41.94129127 6.0778233 -83.68263235 7.18357107 -126 7 C-126 6.34 -126 5.68 -126 5 C-119.08160875 3.67850954 -112.13973185 2.5025879 -105.1875 1.375 C-103.96969849 1.17233521 -103.96969849 1.17233521 -102.72729492 0.96557617 C-98.43518147 0.27857294 -94.36418353 -0.15460876 -90 0 C-93.5809218 2.3872812 -96.5898809 2.8345238 -100.76293945 3.59326172 C-101.50116943 3.72748535 -102.23939941 3.86170898 -103 4 C-89.4832464 5.34120499 -76.27675344 4.6380315 -62.75 3.75 C-60.51994278 3.61011502 -58.2898809 3.47030428 -56.05981445 3.33056641 C-31.03118255 2.3620396 -31.03118255 2.3620396 -6.4465332 -1.66552734 C-3.5807027 -2.05732335 -2.40820391 -1.51627654 0 0 Z " fill="#5E5D60" transform="translate(126,348)"/>
<path d="M0 0 C-0.99 0.33 -1.98 0.66 -3 1 C-3.33 1.99 -3.66 2.98 -4 4 C-5.32 4 -6.64 4 -8 4 C-8 6.64 -8 9.28 -8 12 C-6.02 11.67 -4.04 11.34 -2 11 C-4.3434663 14.51519945 -5.40650549 14.73147675 -9.3125 16 C-12.4027716 17.01182153 -14.95612792 17.97288592 -17.73046875 19.6875 C-18.47941406 20.120625 -19.22835937 20.55375 -20 21 C-20.66 20.67 -21.32 20.34 -22 20 C-21.01 19.67 -20.02 19.34 -19 19 C-19 18.34 -19 17.68 -19 17 C-19.9075 17.37125 -20.815 17.7425 -21.75 18.125 C-25 19 -25 19 -27.375 18.125 C-27.91125 17.75375 -28.4475 17.3825 -29 17 C-29 16.34 -29 15.68 -29 15 C-29.99 14.67 -30.98 14.34 -32 14 C-29.53758005 11.53758005 -27.56561637 11.08935134 -24.25 10.0625 C-19.92857818 8.66698683 -15.90625333 7.32263711 -12 5 C-11.67 4.34 -11.34 3.68 -11 3 C-9.00390625 1.89453125 -9.00390625 1.89453125 -6.5625 0.8125 C-5.35787109 0.26529297 -5.35787109 0.26529297 -4.12890625 -0.29296875 C-2 -1 -2 -1 0 0 Z M-11 12 C-10 14 -10 14 -10 14 Z " fill="#252528" transform="translate(212,283)"/>
<path d="M0 0 C-0.66 0 -1.32 0 -2 0 C-2 0.66 -2 1.32 -2 2 C-3.32 2.33 -4.64 2.66 -6 3 C-6.05414063 3.59683594 -6.10828125 4.19367188 -6.1640625 4.80859375 C-7.71167464 8.86565175 -11.94378355 9.860654 -15.6796875 11.609375 C-24.32612912 15.2307082 -32.67013456 16.52780786 -42 17 C-42 16.34 -42 15.68 -42 15 C-37.73244353 13.20154072 -33.46402282 11.40515338 -29.19482422 9.6105957 C-27.74569759 9.00112431 -26.29679956 8.39110907 -24.84814453 7.78051758 C-22.75354416 6.89778282 -20.65810139 6.01707403 -18.5625 5.13671875 C-17.92570312 4.86784348 -17.28890625 4.5989682 -16.6328125 4.32194519 C-14.75974713 3.5363852 -12.88104504 2.76623683 -11 2 C-10.29214355 1.70380768 -9.58428711 1.40761536 -8.85498047 1.10244751 C-3.34399048 -1.11466349 -3.34399048 -1.11466349 0 0 Z " fill="#353538" transform="translate(211,199)"/>
<path d="M0 0 C0 0.99 0 1.98 0 3 C0.99 3.66 1.98 4.32 3 5 C3 5.66 3 6.32 3 7 C4.65 7 6.3 7 8 7 C8 7.66 8 8.32 8 9 C6.948125 9.226875 5.89625 9.45375 4.8125 9.6875 C-0.40517777 10.96147518 -5.28496707 13.03267205 -10.2421875 15.07421875 C-11.15226562 15.37972656 -12.06234375 15.68523437 -13 16 C-13.66 15.67 -14.32 15.34 -15 15 C-14.195625 14.731875 -13.39125 14.46375 -12.5625 14.1875 C-11.716875 13.795625 -10.87125 13.40375 -10 13 C-9.67 12.01 -9.34 11.02 -9 10 C-7.37667033 8.61423077 -5.71275535 7.27358732 -4 6 C-7.07115594 6 -9.84480455 6.38382119 -12.875 6.875 C-13.90367187 7.03742188 -14.93234375 7.19984375 -15.9921875 7.3671875 C-18.99689501 7.89587962 -18.99689501 7.89587962 -21.6328125 9.1328125 C-24.33604167 10.12310437 -25.31953273 9.80209079 -28 9 C-26.84242188 8.60167969 -25.68484375 8.20335937 -24.4921875 7.79296875 C-22.95305112 7.25802501 -21.41399273 6.72285685 -19.875 6.1875 C-19.11445313 5.92646484 -18.35390625 5.66542969 -17.5703125 5.39648438 C-14.12427274 4.19334118 -10.89746361 2.94873181 -7.625 1.3125 C-4.81417035 -0.09291483 -3.09640969 -0.27321262 0 0 Z " fill="#232326" transform="translate(265,311)"/>
<path d="M0 0 C-0.99 0.99 -1.98 1.98 -3 3 C-2.01 3.66 -1.02 4.32 0 5 C-4.91675545 9.35484054 -9.23056291 9.48696859 -15.66796875 9.78125 C-19.53218576 10.03493834 -23.12683813 10.77153182 -26.87890625 11.6953125 C-29.2136691 12.0306928 -30.77152587 11.71755856 -33 11 C-32.34 11 -31.68 11 -31 11 C-31 10.01 -31 9.02 -31 8 C-28.92446352 7.4465236 -27.15634036 7 -25 7 C-23.32089321 6.28992996 -21.64304144 5.57659856 -19.97460938 4.84179688 C-16.78753186 3.483112 -13.53008192 2.36088947 -10.25 1.25 C-9.59128906 1.01667969 -8.93257812 0.78335938 -8.25390625 0.54296875 C-3.35226987 -1.11742329 -3.35226987 -1.11742329 0 0 Z " fill="#88888A" transform="translate(210,229)"/>
<path d="M0 0 C0 0.66 0 1.32 0 2 C0.556875 2.268125 1.11375 2.53625 1.6875 2.8125 C6.58564743 5.3277649 10.18758951 7.98693633 14 12 C14.598125 12.556875 15.19625 13.11375 15.8125 13.6875 C17 15 17 15 17 17 C12.372199 15.62359788 8.33441529 13.68138619 4.1875 11.25 C3.58019043 10.89873047 2.97288086 10.54746094 2.34716797 10.18554688 C-2.56640057 7.31680381 -7.33465732 4.25833457 -12 1 C-11.071875 0.77183594 -11.071875 0.77183594 -10.125 0.5390625 C-8.74016315 0.18776197 -7.36366604 -0.19885436 -6 -0.625 C-3.69461938 -1.05725887 -2.21265195 -0.71120955 0 0 Z " fill="#848487" transform="translate(387,425)"/>
<path d="M0 0 C-0.33 0.99 -0.66 1.98 -1 3 C-1.66 3 -2.32 3 -3 3 C-3 3.66 -3 4.32 -3 5 C-11.16706843 7.37302726 -19.30319556 9.37629177 -27.6875 10.8125 C-28.45304199 10.94825439 -29.21858398 11.08400879 -30.00732422 11.22387695 C-33.66783193 11.82200179 -36.45286799 12.05888204 -40 11 C-39.2678125 10.8040625 -38.535625 10.608125 -37.78125 10.40625 C-28.39215975 7.81307269 -19.19830478 4.76207413 -10.00195312 1.5546875 C-8.99583984 1.21050781 -7.98972656 0.86632812 -6.953125 0.51171875 C-6.04723633 0.19678467 -5.14134766 -0.11814941 -4.20800781 -0.44262695 C-2 -1 -2 -1 0 0 Z " fill="#777779" transform="translate(177,251)"/>
<path d="M0 0 C1.76462683 3.08809695 2 4.23312136 2 8 C2.66 7.67 3.32 7.34 4 7 C4 8.65 4 10.3 4 12 C6.80045046 12.85650653 6.80045046 12.85650653 10 13 C12.67612341 10.91857068 14.11445225 8.82832162 16 6 C16.22695606 9.25303688 16.09780797 11.7065761 15.0625 14.8125 C12.30367637 17.73852506 10.15816403 17.96761363 6.2265625 18.2109375 C2.86706819 17.89266962 1.229285 16.43828047 -1 14 C-2.16983345 11.6603331 -2.1661241 10.16608473 -2.1875 7.5625 C-2.20167969 6.78003906 -2.21585937 5.99757812 -2.23046875 5.19140625 C-2 3 -2 3 0 0 Z " fill="#202023" transform="translate(420,147)"/>
<path d="M0 0 C-4.18536078 2.79024052 -8.05850265 3.10154594 -13 4 C-9.04 4.33 -5.08 4.66 -1 5 C-1 5.33 -1 5.66 -1 6 C-12.22 6 -23.44 6 -35 6 C-32.39707958 3.39707958 -30.73070357 3.4552599 -27.109375 2.9296875 C-25.33240234 2.66865234 -25.33240234 2.66865234 -23.51953125 2.40234375 C-22.27558594 2.22832031 -21.03164063 2.05429687 -19.75 1.875 C-18.52152344 1.69324219 -17.29304688 1.51148438 -16.02734375 1.32421875 C-10.63031654 0.54653227 -5.46240217 -0.10571729 0 0 Z " fill="#777779" transform="translate(36,348)"/>
<path d="M0 0 C-0.66 0 -1.32 0 -2 0 C-2 0.66 -2 1.32 -2 2 C-3.32 2.33 -4.64 2.66 -6 3 C-6.07476562 3.60199219 -6.14953125 4.20398438 -6.2265625 4.82421875 C-7.27608474 7.77666262 -8.64870089 8.35229773 -11.375 9.8125 C-12.16648438 10.25207031 -12.95796875 10.69164062 -13.7734375 11.14453125 C-16 12 -16 12 -19 11 C-18.649375 10.38125 -18.29875 9.7625 -17.9375 9.125 C-17.628125 8.42375 -17.31875 7.7225 -17 7 C-17.33 6.34 -17.66 5.68 -18 5 C-15.56686628 3.96748938 -13.12943108 2.94880479 -10.6875 1.9375 C-9.65206055 1.49567383 -9.65206055 1.49567383 -8.59570312 1.04492188 C-3.33984375 -1.11328125 -3.33984375 -1.11328125 0 0 Z " fill="#29282C" transform="translate(211,199)"/>
<path d="M0 0 C0.33 0.66 0.66 1.32 1 2 C-1.39509338 4.89932357 -3.31245243 5.50168276 -7 6 C-7 6.66 -7 7.32 -7 8 C-8.74001935 9.55961601 -10.54303197 11.04949575 -12.375 12.5 C-16.31482541 15.60759138 -16.31482541 15.60759138 -20 19 C-20.99 19 -21.98 19 -23 19 C-23 17.68 -23 16.36 -23 15 C-21.68 14.67 -20.36 14.34 -19 14 C-19 13.34 -19 12.68 -19 12 C-17.12890625 10.703125 -17.12890625 10.703125 -14.5625 9.25 C-9.56772522 6.35716325 -4.76919112 3.24857946 0 0 Z " fill="#323135" transform="translate(370,256)"/>
<path d="M0 0 C0.66 0 1.32 0 2 0 C2.33 0.99 2.66 1.98 3 3 C5.50447516 4.21869929 5.50447516 4.21869929 8 5 C8 5.66 8 6.32 8 7 C7.195625 7.474375 6.39125 7.94875 5.5625 8.4375 C2.7081924 9.79983672 2.7081924 9.79983672 2 13 C1.34 13 0.68 13 0 13 C-0.061875 12.38125 -0.12375 11.7625 -0.1875 11.125 C-0.828919 8.72238859 -0.828919 8.72238859 -3.5625 7.75 C-4.366875 7.5025 -5.17125 7.255 -6 7 C-6 6.34 -6 5.68 -6 5 C-5.195625 4.731875 -4.39125 4.46375 -3.5625 4.1875 C-2.716875 3.795625 -1.87125 3.40375 -1 3 C-0.67 2.01 -0.34 1.02 0 0 Z " fill="#858587" transform="translate(196,172)"/>
<path d="M0 0 C1.5 1.375 1.5 1.375 3 3 C3 3.66 3 4.32 3 5 C4.32 5.33 5.64 5.66 7 6 C4.6875 8.5 4.6875 8.5 2 11 C-1 11 -1 11 -2.5625 9.5625 C-3.036875 9.046875 -3.51125 8.53125 -4 8 C-4.66 7.67 -5.32 7.34 -6 7 C-6 6.34 -6 5.68 -6 5 C-5.38125 4.731875 -4.7625 4.46375 -4.125 4.1875 C-1.7004767 3.04443152 -1.7004767 3.04443152 0 0 Z " fill="#9A9A9C" transform="translate(67,276)"/>
<path d="M0 0 C1.65 0 3.3 0 5 0 C6.1875 3.25 6.1875 3.25 7 7 C5.625 9.4375 5.625 9.4375 4 11 C2.125 10.75 2.125 10.75 0 10 C-1.62274001 7.75907332 -2.0925416 6.62928291 -1.6875 3.875 C-1 2 -1 2 0 0 Z " fill="#3F3F42" transform="translate(424,149)"/>
<path d="M0 0 C0.66 0 1.32 0 2 0 C2.33 1.65 2.66 3.3 3 5 C4.32 5.33 5.64 5.66 7 6 C7 6.66 7 7.32 7 8 C5.68 8.33 4.36 8.66 3 9 C2.67 10.32 2.34 11.64 2 13 C1.34 13 0.68 13 0 13 C-0.268125 12.360625 -0.53625 11.72125 -0.8125 11.0625 C-1.88667752 8.66868314 -1.88667752 8.66868314 -5 8 C-5 7.34 -5 6.68 -5 6 C-4.01 5.67 -3.02 5.34 -2 5 C-0.78130071 2.49552484 -0.78130071 2.49552484 0 0 Z " fill="#868688" transform="translate(114,389)"/>
<path d="M0 0 C-1 2 -1 2 -2.69140625 2.58984375 C-12.00200883 4.24401172 -21.57751581 4.13879273 -31 4 C-31 3.67 -31 3.34 -31 3 C-20.62718197 1.17716169 -10.57926542 -0.57014005 0 0 Z " fill="#3E3E41" transform="translate(97,321)"/>
<path d="M0 0 C0.7734375 0.3403125 0.7734375 0.3403125 1.5625 0.6875 C-2.13239906 5.36770547 -5.21895423 6.46594622 -11.03515625 7.5234375 C-13.4388532 7.68759241 -15.15600386 7.4146281 -17.4375 6.6875 C-16.7775 6.6875 -16.1175 6.6875 -15.4375 6.6875 C-15.4375 5.6975 -15.4375 4.7075 -15.4375 3.6875 C-13.36196352 3.1340236 -11.59384036 2.6875 -9.4375 2.6875 C-8.32375 2.171875 -7.21 1.65625 -6.0625 1.125 C-2.4375 -0.3125 -2.4375 -0.3125 0 0 Z " fill="#A8A9AA" transform="translate(194.4375,233.3125)"/>
<path d="M0 0 C3 1 3 1 5 4 C5.99 4.66 6.98 5.32 8 6 C7.21625 6.61875 6.4325 7.2375 5.625 7.875 C3.03162353 9.89858661 3.03162353 9.89858661 1 12 C0.34 10.35 -0.32 8.7 -1 7 C-1.99 7 -2.98 7 -4 7 C-4 6.34 -4 5.68 -4 5 C-3.01 4.34 -2.02 3.68 -1 3 C-0.67 2.01 -0.34 1.02 0 0 Z " fill="#919193" transform="translate(170,364)"/>
<path d="M0 0 C-1.28892677 2.87529818 -2.49296383 5.05008298 -5 7 C-5.845625 7.144375 -6.69125 7.28875 -7.5625 7.4375 C-8.7690625 7.7159375 -8.7690625 7.7159375 -10 8 C-10.6837045 9.32467746 -11.34964186 10.65863633 -12 12 C-14.625 13.25 -14.625 13.25 -17 14 C-17.33 13.01 -17.66 12.02 -18 11 C-12.25 7 -12.25 7 -10 7 C-10 6.34 -10 5.68 -10 5 C-8.68 4.67 -7.36 4.34 -6 4 C-6 3.34 -6 2.68 -6 2 C-2.25 0 -2.25 0 0 0 Z " fill="#949496" transform="translate(302,324)"/>
<path d="M0 0 C-2.5864584 2.5864584 -5.2938548 3.62271883 -8.625 5.125 C-9.81351562 5.66382812 -11.00203125 6.20265625 -12.2265625 6.7578125 C-13.14179688 7.16773437 -14.05703125 7.57765625 -15 8 C-15 7.01 -15 6.02 -15 5 C-15.66 4.67 -16.32 4.34 -17 4 C-15.75264433 3.3490741 -14.50198168 2.70448331 -13.25 2.0625 C-12.55390625 1.70285156 -11.8578125 1.34320313 -11.140625 0.97265625 C-7.01441193 -0.90221064 -4.4158621 -1.10396552 0 0 Z " fill="#DFDFE0" transform="translate(351,81)"/>
<path d="M0 0 C-3.55848144 2.27638151 -7.00429875 3.88412253 -11 5.25 C-12.010625 5.60578125 -13.02125 5.9615625 -14.0625 6.328125 C-17.14721332 7.03367113 -18.98856765 6.86357251 -22 6 C-22 5.34 -22 4.68 -22 4 C-18.89948553 3.1321772 -15.79413335 2.28313233 -12.6875 1.4375 C-11.80642578 1.19064453 -10.92535156 0.94378906 -10.01757812 0.68945312 C-9.17001953 0.46064453 -8.32246094 0.23183594 -7.44921875 -0.00390625 C-6.66893311 -0.21861572 -5.88864746 -0.4333252 -5.0847168 -0.65454102 C-3 -1 -3 -1 0 0 Z " fill="#C7C7C8" transform="translate(199,289)"/>
<path d="M0 0 C-0.33 0.99 -0.66 1.98 -1 3 C-1.66 3 -2.32 3 -3 3 C-3 3.66 -3 4.32 -3 5 C-6.21451269 6.60725635 -9.43612536 6.05748185 -13 6 C-13 5.01 -13 4.02 -13 3 C-11.21189234 2.30329584 -9.41937948 1.61788811 -7.625 0.9375 C-6.62726563 0.55464844 -5.62953125 0.17179688 -4.6015625 -0.22265625 C-2 -1 -2 -1 0 0 Z " fill="#88888A" transform="translate(177,251)"/>
<path d="M0 0 C0 0.99 0 1.98 0 3 C-1.14339844 3.27714844 -2.28679687 3.55429687 -3.46484375 3.83984375 C-4.95577465 4.20554378 -6.44665761 4.57143929 -7.9375 4.9375 C-8.69224609 5.11990234 -9.44699219 5.30230469 -10.22460938 5.49023438 C-13.91279821 6.13839179 -13.91279821 6.13839179 -17 8 C-18.99958364 8.04080783 -21.00045254 8.04254356 -23 8 C-20.16733661 5.16733661 -16.75026573 4.54225485 -13 3.4375 C-1.53498542 0 -1.53498542 0 0 0 Z " fill="#28282B" transform="translate(162,435)"/>
<path d="M0 0 C0.66 0.66 1.32 1.32 2 2 C-0.24567681 3.48610965 -2.49609454 4.96396459 -4.75 6.4375 C-5.38421875 6.85837891 -6.0184375 7.27925781 -6.671875 7.71289062 C-7.6 8.31713867 -7.6 8.31713867 -8.546875 8.93359375 C-9.11245117 9.30540771 -9.67802734 9.67722168 -10.26074219 10.06030273 C-12.15049862 11.08131235 -13.90392138 11.56432082 -16 12 C-16 12.66 -16 13.32 -16 14 C-16.66 14 -17.32 14 -18 14 C-16.71363667 10.14091001 -15.24557195 9.64272849 -11.8125 7.5625 C-10.8225 6.9540625 -9.8325 6.345625 -8.8125 5.71875 C-7.884375 5.1515625 -6.95625 4.584375 -6 4 C-3.98500015 2.68719707 -1.99272841 1.34643811 0 0 Z " fill="#7F7F81" transform="translate(339,343)"/>
<path d="M0 0 C-5.25 5.25 -5.25 5.25 -10.625 5.625 C-11.62789063 5.69976562 -12.63078125 5.77453125 -13.6640625 5.8515625 C-14.82035156 5.92503906 -14.82035156 5.92503906 -16 6 C-16 5.34 -16 4.68 -16 4 C-13.90049414 3.13444052 -11.7952093 2.28288723 -9.6875 1.4375 C-8.51574219 0.96183594 -7.34398438 0.48617188 -6.13671875 -0.00390625 C-3 -1 -3 -1 0 0 Z " fill="#343337" transform="translate(93,441)"/>
<path d="M0 0 C-1.98 0.99 -1.98 0.99 -4 2 C-3.67 3.32 -3.34 4.64 -3 6 C-1.68 6.33 -0.36 6.66 1 7 C-0.98 7.99 -0.98 7.99 -3 9 C-4.98 7.35 -6.96 5.7 -9 4 C-8.67 3.01 -8.34 2.02 -8 1 C-2.59770115 -1.29885057 -2.59770115 -1.29885057 0 0 Z " fill="#A9A9AB" transform="translate(239,345)"/>
<path d="M0 0 C-0.99 0.33 -1.98 0.66 -3 1 C-3 1.66 -3 2.32 -3 3 C-6.08809695 4.76462683 -7.23312136 5 -11 5 C-13.36493969 5.95499298 -15.59915135 7.08085658 -17.87890625 8.22265625 C-20 9 -20 9 -23 8 C-4.05479452 -2.02739726 -4.05479452 -2.02739726 0 0 Z " fill="#555558" transform="translate(243,230)"/>
<path d="M0 0 C0.66 0.33 1.32 0.66 2 1 C2 1.66 2 2.32 2 3 C2.66 3 3.32 3 4 3 C4 3.99 4 4.98 4 6 C2.35 6.66 0.7 7.32 -1 8 C-1 7.34 -1 6.68 -1 6 C-1.99 5.67 -2.98 5.34 -4 5 C-2.68 3.35 -1.36 1.7 0 0 Z " fill="#7A797C" transform="translate(107,264)"/>
<path d="M0 0 C1 3 1 3 -0.25 6 C-1.74982993 8.57113702 -2.82212449 10.07341782 -5 12 C-5.886875 12.886875 -6.77375 13.77375 -7.6875 14.6875 C-8.450625 15.450625 -9.21375 16.21375 -10 17 C-8.31447687 13.50190425 -6.39381793 10.16560443 -4.4375 6.8125 C-3.81746094 5.74644531 -3.19742187 4.68039062 -2.55859375 3.58203125 C-1 1 -1 1 0 0 Z " fill="#403F43" transform="translate(426,258)"/>
<path d="M0 0 C-0.33 0.66 -0.66 1.32 -1 2 C-3.87182587 2.47618812 -6.67120147 2.84167597 -9.5625 3.125 C-10.77196289 3.25455078 -10.77196289 3.25455078 -12.00585938 3.38671875 C-14.00304064 3.59943628 -16.00142737 3.80077855 -18 4 C-15.48115349 1.48115349 -13.56355758 1.1742412 -10.125 0.3125 C-9.07570312 0.04050781 -8.02640625 -0.23148437 -6.9453125 -0.51171875 C-4.14833162 -0.97540921 -2.627808 -0.94575698 0 0 Z " fill="#59595C" transform="translate(155,259)"/>
<path d="M0 0 C0 0.99 0 1.98 0 3 C-12.58662578 8.65113811 -12.58662578 8.65113811 -18 7 C-16.78441406 6.57847656 -15.56882813 6.15695312 -14.31640625 5.72265625 C-12.73171808 5.16942192 -11.14708552 4.61602828 -9.5625 4.0625 C-8.76005859 3.78470703 -7.95761719 3.50691406 -7.13085938 3.22070312 C-6.36708984 2.95322266 -5.60332031 2.68574219 -4.81640625 2.41015625 C-4.10943604 2.16402588 -3.40246582 1.91789551 -2.67407227 1.66430664 C-0.99317368 1.12532025 -0.99317368 1.12532025 0 0 Z " fill="#3F3E42" transform="translate(255,313)"/>
<path d="M0 0 C-1.38980752 1.13243576 -2.78714677 2.25563119 -4.1875 3.375 C-4.96480469 4.00148438 -5.74210937 4.62796875 -6.54296875 5.2734375 C-8.96879382 6.97807134 -11.21309045 8.01987906 -14 9 C-10.73609897 4.43053855 -5.98341901 -1.994473 0 0 Z " fill="#262629" transform="translate(359,344)"/>
<path d="M0 0 C1.65 0 3.3 0 5 0 C5.33 1.65 5.66 3.3 6 5 C5.67 4.01 5.34 3.02 5 2 C4.01 2.33 3.02 2.66 2 3 C2 5.31 2 7.62 2 10 C1.34 10 0.68 10 0 10 C-1.37494222 7.73538929 -2.07991957 6.54345306 -1.6875 3.875 C-1 2 -1 2 0 0 Z " fill="#353539" transform="translate(424,149)"/>
<path d="M0 0 C-0.66 1.32 -1.32 2.64 -2 4 C-4.64 4 -7.28 4 -10 4 C-9.67 3.01 -9.34 2.02 -9 1 C-5.8035914 -0.06546953 -3.34252724 -0.07427838 0 0 Z " fill="#A5A5A7" transform="translate(155,282)"/>
<path d="M0 0 C0.80824219 0.19464844 1.61648437 0.38929688 2.44921875 0.58984375 C3.06410156 0.74582031 3.67898437 0.90179688 4.3125 1.0625 C4.3125 1.3925 4.3125 1.7225 4.3125 2.0625 C2.73163952 2.42754603 1.14766093 2.77910506 -0.4375 3.125 C-1.31921875 3.32222656 -2.2009375 3.51945313 -3.109375 3.72265625 C-5.67429028 4.06075872 -7.25841639 3.87408635 -9.6875 3.0625 C-9.0275 3.0625 -8.3675 3.0625 -7.6875 3.0625 C-7.6875 2.0725 -7.6875 1.0825 -7.6875 0.0625 C-4.39053895 -1.03648702 -3.28255097 -0.80874444 0 0 Z " fill="#858587" transform="translate(186.6875,236.9375)"/>
<path d="M0 0 C0.33 0.66 0.66 1.32 1 2 C0.14453125 4.09375 0.14453125 4.09375 -1.1875 6.5 C-1.61417969 7.2940625 -2.04085938 8.088125 -2.48046875 8.90625 C-4.13704667 11.18883551 -5.40664227 11.97820595 -8 13 C-6.40956621 7.91061189 -3.2553049 4.12543357 0 0 Z " fill="#E0E0E1" transform="translate(284,143)"/>
<path d="M0 0 C0.66 0.33 1.32 0.66 2 1 C-0.66666667 3 -3.33333333 5 -6 7 C-6.70640625 7.56074219 -7.4128125 8.12148438 -8.140625 8.69921875 C-10 10 -10 10 -12 10 C-10.69522778 6.08568335 -9.01326694 5.42187412 -5.5625 3.25 C-4.57378906 2.61578125 -3.58507812 1.9815625 -2.56640625 1.328125 C-1.29603516 0.67070312 -1.29603516 0.67070312 0 0 Z " fill="#7B7B7E" transform="translate(353,334)"/>
<path d="M0 0 C4.8 2.46153846 4.8 2.46153846 5.8125 5.1875 C5.874375 5.785625 5.93625 6.38375 6 7 C2.22454612 5.90931332 -0.47043472 5.0916909 -3 2 C-2.01 2 -1.02 2 0 2 C0 1.34 0 0.68 0 0 Z " fill="#77777A" transform="translate(398,435)"/>
<path d="M0 0 C0.66 0 1.32 0 2 0 C3 1 4 2 5 3 C5.66 3 6.32 3 7 3 C7.66 4.98 8.32 6.96 9 9 C7.02 8.01 5.04 7.02 3 6 C3 5.34 3 4.68 3 4 C2.01 3.67 1.02 3.34 0 3 C0 2.01 0 1.02 0 0 Z " fill="#8A8A8C" transform="translate(239,354)"/>
<path d="M0 0 C0.75410156 0.09990234 1.50820313 0.19980469 2.28515625 0.30273438 C4.14917753 0.55048404 6.01219288 0.80578057 7.875 1.0625 C7.875 1.3925 7.875 1.7225 7.875 2.0625 C1.935 2.0625 -4.005 2.0625 -10.125 2.0625 C-10.125 1.4025 -10.125 0.7425 -10.125 0.0625 C-6.87932383 -1.56033808 -3.48660376 -0.48475234 0 0 Z " fill="#A0A0A2" transform="translate(27.125,351.9375)"/>
<path d="M0 0 C-1.485 2.475 -1.485 2.475 -3 5 C-4.65 4.67 -6.3 4.34 -8 4 C-8 3.01 -8 2.02 -8 1 C-5.29120665 -0.35439668 -2.99066732 -0.06501451 0 0 Z " fill="#9E9EA0" transform="translate(228,336)"/>
<path d="M0 0 C0.33 0.66 0.66 1.32 1 2 C-1.39509338 4.89932357 -3.31245243 5.50168276 -7 6 C-7 6.66 -7 7.32 -7 8 C-8.65 8.33 -10.3 8.66 -12 9 C-8.53005564 5.0963126 -4.44775994 2.63411025 0 0 Z " fill="#636366" transform="translate(370,256)"/>
<path d="M0 0 C-0.1875 1.875 -0.1875 1.875 -1 4 C-3.5625 5.25 -3.5625 5.25 -6 6 C-6 5.01 -6 4.02 -6 3 C-6.66 2.67 -7.32 2.34 -8 2 C-4.91190305 0.23537317 -3.76687864 0 0 0 Z " fill="#D8D8D9" transform="translate(342,83)"/>
<path d="M0 0 C3 1 3 1 4.1875 3.0625 C4.455625 3.701875 4.72375 4.34125 5 5 C4.2575 5.144375 3.515 5.28875 2.75 5.4375 C0.47972261 5.90187492 -1.75759479 6.41863569 -4 7 C-4 6.34 -4 5.68 -4 5 C-3.01 4.34 -2.02 3.68 -1 3 C-0.67 2.01 -0.34 1.02 0 0 Z " fill="#79797B" transform="translate(170,364)"/>
<path d="M0 0 C0.66 0.33 1.32 0.66 2 1 C-1.3 3.97 -4.6 6.94 -8 10 C-8.66 9.34 -9.32 8.68 -10 8 C-6.72318357 5.24449528 -3.45826297 2.52719217 0 0 Z " fill="#646467" transform="translate(312,315)"/>
<path d="M0 0 C1.13732426 3.40401948 0.83989957 5.77456664 0.0625 9.25 C-0.13214844 10.14203125 -0.32679688 11.0340625 -0.52734375 11.953125 C-0.68332031 12.62859375 -0.83929688 13.3040625 -1 14 C-1.33 14 -1.66 14 -2 14 C-3.32854177 8.0819503 -2.66464729 5.22270869 0 0 Z " fill="#DDDDDE" transform="translate(328,170)"/>
<path d="M0 0 C0 0.66 0 1.32 0 2 C-1.65 2 -3.3 2 -5 2 C-5.66 4.31 -6.32 6.62 -7 9 C-7.33 9 -7.66 9 -8 9 C-7.5129959 2.54719562 -7.5129959 2.54719562 -5.125 0 C-3 -1 -3 -1 0 0 Z " fill="#29292C" transform="translate(429,147)"/>
<path d="M0 0 C0.66 0.33 1.32 0.66 2 1 C1.01 1.33 0.02 1.66 -1 2 C-1.33 2.99 -1.66 3.98 -2 5 C-4.31 5.33 -6.62 5.66 -9 6 C-9 5.34 -9 4.68 -9 4 C-7.54618103 3.30300448 -6.08677047 2.61766134 -4.625 1.9375 C-3.40683594 1.36322266 -3.40683594 1.36322266 -2.1640625 0.77734375 C-1.44992188 0.52082031 -0.73578125 0.26429688 0 0 Z " fill="#323135" transform="translate(210,282)"/>
<path d="M0 0 C-2.22825644 2.22825644 -3.65761628 2.69239369 -6.625 3.625 C-7.44226563 3.88539063 -8.25953125 4.14578125 -9.1015625 4.4140625 C-9.72804687 4.60742188 -10.35453125 4.80078125 -11 5 C-10 2 -10 2 -8.3125 0.8125 C-5.45030907 -0.19313465 -3.01172092 -0.13689641 0 0 Z " fill="#979799" transform="translate(248,329)"/>
<path d="M0 0 C-3.74525799 3.74525799 -7.98270909 3.68909949 -13 4 C-10.81006393 1.81006393 -9.4012702 1.27802011 -6.5 0.3125 C-5.7059375 0.04050781 -4.911875 -0.23148438 -4.09375 -0.51171875 C-2 -1 -2 -1 0 0 Z " fill="#636365" transform="translate(177,251)"/>
<path d="M0 0 C0.99 0.33 1.98 0.66 3 1 C1.68 1.99 0.36 2.98 -1 4 C-0.67 2.68 -0.34 1.36 0 0 Z M-2 4 C-0.35 4.33 1.3 4.66 3 5 C2.67 5.66 2.34 6.32 2 7 C-0.0625 7.625 -0.0625 7.625 -2 8 C-2 6.68 -2 5.36 -2 4 Z " fill="#808083" transform="translate(207,228)"/>
<path d="M0 0 C-0.33 0.66 -0.66 1.32 -1 2 C-3.06640625 2.6328125 -3.06640625 2.6328125 -5.5625 3.125 C-6.80193359 3.37636719 -6.80193359 3.37636719 -8.06640625 3.6328125 C-8.70449219 3.75398437 -9.34257812 3.87515625 -10 4 C-10 3.34 -10 2.68 -10 2 C-6.49223216 0.39644899 -3.85645121 -0.22036864 0 0 Z " fill="#424245" transform="translate(179,212)"/>
<path d="M0 0 C1.32 0.33 2.64 0.66 4 1 C1.6875 3.5 1.6875 3.5 -1 6 C-1.99 6 -2.98 6 -4 6 C-4.33 5.01 -4.66 4.02 -5 3 C-4.360625 2.87625 -3.72125 2.7525 -3.0625 2.625 C-2.0415625 2.315625 -2.0415625 2.315625 -1 2 C-0.67 1.34 -0.34 0.68 0 0 Z " fill="#69696C" transform="translate(70,281)"/>
<path d="M0 0 C0.66 0.66 1.32 1.32 2 2 C-2.75 5 -2.75 5 -5 5 C-5 5.66 -5 6.32 -5 7 C-5.66 7 -6.32 7 -7 7 C-5.66667905 3.00003714 -3.5042173 2.16217663 0 0 Z " fill="#525155" transform="translate(328,350)"/>
<path d="M0 0 C-3.08559304 2.26881841 -4.42209376 3.05451946 -8.3125 2.6875 C-9.199375 2.460625 -10.08625 2.23375 -11 2 C-6.99642627 -0.14477164 -4.43233175 -1.47744392 0 0 Z " fill="#A9A9AA" transform="translate(199,289)"/>
<path d="M0 0 C1.32 0 2.64 0 4 0 C4 0.66 4 1.32 4 2 C2.46875 3.2890625 2.46875 3.2890625 0.5 4.625 C-0.1496875 5.07101562 -0.799375 5.51703125 -1.46875 5.9765625 C-1.9740625 6.31429688 -2.479375 6.65203125 -3 7 C-3.66 6.67 -4.32 6.34 -5 6 C-4.360625 5.566875 -3.72125 5.13375 -3.0625 4.6875 C-0.73253997 3.08760823 -0.73253997 3.08760823 0 0 Z " fill="#3D3D41" transform="translate(217,275)"/>
<path d="M0 0 C-1.36983503 3.16115776 -1.9890638 3.9927092 -5 6 C-5.33 4.68 -5.66 3.36 -6 2 C-2.25 0 -2.25 0 0 0 Z " fill="#828284" transform="translate(302,324)"/>
<path d="M0 0 C0.66 0.33 1.32 0.66 2 1 C0.625 2.5 0.625 2.5 -1 4 C-1.66 4 -2.32 4 -3 4 C-3 4.66 -3 5.32 -3 6 C-3.99 6.33 -4.98 6.66 -6 7 C-6 6.01 -6 5.02 -6 4 C-3 1.8125 -3 1.8125 0 0 Z " fill="#59595C" transform="translate(277,249)"/>
<path d="M0 0 C-1 3 -1 3 -4 5 C-4.99 5 -5.98 5 -7 5 C-6 2 -6 2 -4.0625 0.8125 C-2 0 -2 0 0 0 Z " fill="#1E1E21" transform="translate(205,203)"/>
<path d="M0 0 C0.99 0.33 1.98 0.66 3 1 C1.68 1.99 0.36 2.98 -1 4 C-0.67 2.68 -0.34 1.36 0 0 Z " fill="#E2E2E3" transform="translate(304,98)"/>
<path d="M0 0 C0.99 0.33 1.98 0.66 3 1 C2.67 1.99 2.34 2.98 2 4 C0.68 3.34 -0.64 2.68 -2 2 C-1.34 1.34 -0.68 0.68 0 0 Z " fill="#444347" transform="translate(232,160)"/>
<path d="M0 0 C3 1 3 1 3 1 Z " fill="#1B1B1E" transform="translate(63,325)"/>
<path d="M0 0 C0.33 0.66 0.66 1.32 1 2 C0.34 1.67 -0.32 1.34 -1 1 C-0.67 0.67 -0.34 0.34 0 0 Z " fill="#2C2C2F" transform="translate(128,274)"/>
<path d="M0 0 C2 1 2 1 2 1 Z " fill="#1A1A1D" transform="translate(306,308)"/>
<path d="M0 0 C2 1 2 1 2 1 Z " fill="#545458" transform="translate(117,281)"/>
</svg>
